Results
version=1
nRows=12
nColumns=53
inDegrees=yes
endheader
time	/jointset/bb/crank_angle/value	/jointset/bb/crank_angle/speed	/jointset/spindle/pedal_angle_r/value	/jointset/spindle/pedal_angle_r/speed	/jointset/ground_pelvis/pelvis_tilt/value	/jointset/ground_pelvis/pelvis_tilt/speed	/jointset/ground_pelvis/pelvis_list/value	/jointset/ground_pelvis/pelvis_list/speed	/jointset/ground_pelvis/pelvis_rotation/value	/jointset/ground_pelvis/pelvis_rotation/speed	/jointset/ground_pelvis/pelvis_tx/value	/jointset/ground_pelvis/pelvis_tx/speed	/jointset/ground_pelvis/pelvis_ty/value	/jointset/ground_pelvis/pelvis_ty/speed	/jointset/ground_pelvis/pelvis_tz/value	/jointset/ground_pelvis/pelvis_tz/speed	/jointset/hip_r/hip_angle_r/value	/jointset/hip_r/hip_angle_r/speed	/jointset/hip_r/hip_adduction_r/value	/jointset/hip_r/hip_adduction_r/speed	/jointset/hip_r/hip_rotation_r/value	/jointset/hip_r/hip_rotation_r/speed	/jointset/knee_r/knee_angle_r/value	/jointset/knee_r/knee_angle_r/speed	/jointset/knee_r/tib_tx_r/value	/jointset/knee_r/tib_tx_r/speed	/jointset/knee_r/tib_ty_r/value	/jointset/knee_r/tib_ty_r/speed	/jointset/tib_pat_r/pat_angle_r/value	/jointset/tib_pat_r/pat_angle_r/speed	/jointset/tib_pat_r/pat_tx_r/value	/jointset/tib_pat_r/pat_tx_r/speed	/jointset/tib_pat_r/pat_ty_r/value	/jointset/tib_pat_r/pat_ty_r/speed	/jointset/ankle_r/ankle_angle_r/value	/jointset/ankle_r/ankle_angle_r/speed	/jointset/subtalar_r/subtalar_angle_r/value	/jointset/subtalar_r/subtalar_angle_r/speed	/jointset/mtp_r/mtp_angle_r/value	/jointset/mtp_r/mtp_angle_r/speed	/forceset/bifemlh_r/activation	/forceset/bifemlh_r/fiber_length	/forceset/bifemsh_r/activation	/forceset/bifemsh_r/fiber_length	/forceset/glut_max2_r/activation	/forceset/glut_max2_r/fiber_length	/forceset/vas_int_r/activation	/forceset/vas_int_r/fiber_length	/forceset/med_gas_r/activation	/forceset/med_gas_r/fiber_length	/forceset/tib_ant_r/activation	/forceset/tib_ant_r/fiber_length
      0.00000000	    -44.99999064	   -480.13863232	     47.69826876	    580.41459492	      0.00000000	      0.00000000	      0.00000000	      0.00000000	      0.00000000	      0.00000000	     -0.10000000	      0.00000000	     -0.05000000	     -0.00000000	     -0.00085074	     -0.00000000	     80.35884668	   -104.18638548	      4.12829562	      2.07742499	     -2.41600875	     20.56856648	   -100.78263205	    246.03812370	      0.00193373	      0.05337124	     -0.48966704	      0.08454765	     17.60972265	     -1.01231808	      0.02841491	      0.10441536	     -0.02321777	      0.01438071	     23.69010372	    -43.09963502	      0.00000000	      0.00000000	      0.00000000	     -0.00000000	      0.05000000	      0.10000000	      0.05000000	      0.10000000	      0.05000000	      0.10000000	      0.05000000	      0.10000000	      0.05000000	      0.10000000	      0.05000000	      0.10000000
      0.01000000	    -49.80137696	   -480.13863232	     53.48538231	    577.05721829	      0.00000000	      0.00000000	      0.00000000	      0.00000000	      0.00000000	      0.00000000	     -0.10000000	      0.00000000	     -0.05000000	     -0.00000000	     -0.00085074	     -0.00000000	     79.23995947	   -119.41614002	      4.14884353	      2.02760579	     -2.20902161	     20.81596256	    -98.27703198	    254.89443673	      0.00245254	      0.05028052	     -0.48880393	      0.08799480	     17.59928023	     -1.06944343	      0.02946538	      0.10556554	     -0.02307695	      0.01374057	     23.27406533	    -40.04469402	      0.00000000	     -0.00000000	     -0.00000000	     -0.00000000	      0.05000000	      0.10000000	      0.05000000	      0.10000000	      0.05000000	      0.10000000	      0.05000000	      0.10000000	      0.05000000	      0.10000000	      0.05000000	      0.10000000
      0.03534660	    -61.97125867	   -480.13863232	     68.01665359	    569.85285496	      0.00000000	      0.00000000	      0.00000000	      0.00000000	     -0.00000000	     -0.00000000	     -0.10000000	      0.00000000	     -0.05000000	     -0.00000000	     -0.00085074	     -0.00000000	     75.77038554	   -153.18367541	      4.19755499	      1.79241088	     -1.67619668	     21.17633693	    -91.57895225	    272.49845823	      0.00360266	      0.03995636	     -0.48648381	      0.09454210	     17.57233322	     -1.00042647	      0.03215137	      0.10578532	     -0.02276021	      0.01098769	     22.37093842	    -30.94936322	     -0.00000000	      0.00000000	     -0.00000000	     -0.00000000	      0.05000000	      0.10000000	      0.05000000	      0.10000000	      0.05000000	      0.10000000	      0.05000000	      0.10000000	      0.05000000	      0.10000000	      0.05000000	      0.10000000
      0.06069320	    -74.14114038	   -480.13863232	     82.38738630	    564.33469888	      0.00000000	     -0.00000000	      0.00000000	      0.00000000	     -0.00000000	      0.00000000	     -0.10000000	     -0.00000000	     -0.05000000	      0.00000000	     -0.00085074	      0.00000000	     71.53427832	   -179.90056356	      4.23871496	      1.43965780	     -1.13717765	     21.33683174	    -84.51811233	    283.58761294	      0.00445853	      0.02731517	     -0.48403925	      0.09778323	     17.55178333	     -0.55308834	      0.03480234	      0.10296162	     -0.02253709	      0.00614847	     21.71498859	    -20.66806982	      0.00000000	     -0.00000000	     -0.00000000	      0.00000000	      0.05000000	      0.10000000	      0.05000000	      0.10000000	      0.05000000	      0.10000000	      0.05000000	      0.10000000	      0.05000000	      0.10000000	      0.05000000	      0.10000000
      0.08318779	    -84.94166059	   -480.13863232	     95.03713874	    560.48531062	      0.00000000	      0.00000000	     -0.00000000	     -0.00000000	     -0.00000000	      0.00000000	     -0.10000000	      0.00000000	     -0.05000000	     -0.00000000	     -0.00085074	      0.00000000	     67.27619235	   -197.77277651	      4.26695722	      1.06408776	     -0.65616013	     21.42810159	    -78.07848885	    288.11586520	      0.00493840	      0.01528622	     -0.48183466	      0.09776304	     17.54383863	     -0.32822243	      0.03707194	      0.09857976	     -0.02247216	     -0.00069558	     21.35809817	    -11.00297355	     -0.00000000	      0.00000000	      0.00000000	     -0.00000000	      0.05000000	      0.10000000	      0.05000000	      0.10000000	      0.05000000	      0.10000000	      0.05000000	      0.10000000	      0.05000000	      0.10000000	      0.05000000	      0.10000000
      0.10375260	    -94.81562297	   -480.13863232	    106.53116562	    557.36234065	      0.00000000	      0.00000000	     -0.00000000	      0.00000000	      0.00000000	      0.00000000	     -0.10000000	     -0.00000000	     -0.05000000	     -0.00000000	     -0.00085074	     -0.00000000	     63.08292203	   -209.24806968	      4.28505541	      0.69363326	     -0.21477528	     21.49366586	    -72.15110497	    287.53851214	      0.00513643	      0.00395330	     -0.47984580	      0.09525606	     17.53049609	     -1.13187485	      0.03904805	      0.09344219	     -0.02254460	     -0.00599724	     21.22504639	     -1.90672840	     -0.00000000	     -0.00000000	     -0.00000000	     -0.00000000	      0.05000000	      0.10000000	      0.05000000	      0.10000000	      0.05000000	      0.10000000	      0.05000000	      0.10000000	      0.05000000	      0.10000000	      0.05000000	      0.10000000
      0.12839432	   -106.64706494	   -480.13863232	    120.21573740	    553.08699462	      0.00000000	     -0.00000000	      0.00000000	      0.00000000	      0.00000000	      0.00000000	     -0.10000000	     -0.00000000	     -0.05000000	     -0.00000000	     -0.00085074	     -0.00000000	     57.82214272	   -216.47873313	      4.29662944	      0.24890782	      0.31510649	     21.48268741	    -65.14400088	    279.70960768	      0.00506959	     -0.00918730	     -0.47756843	      0.08896608	     17.47852887	     -3.27136398	      0.04126185	      0.08598076	     -0.02274107	     -0.00939530	     21.31372451	      9.08803317	     -0.00000000	     -0.00000000	      0.00000000	      0.00000000	      0.05000000	      0.10000000	      0.05000000	      0.10000000	      0.05000000	      0.10000000	      0.05000000	      0.10000000	      0.05000000	      0.10000000	      0.05000000	      0.10000000
      0.15303604	   -118.47850692	   -480.13863232	    133.76601739	    545.87089008	      0.00000000	     -0.00000000	      0.00000000	      0.00000000	      0.00000000	      0.00000000	     -0.10000000	      0.00000000	     -0.05000000	      0.00000000	     -0.00085074	     -0.00000000	     52.48280274	   -215.27474664	      4.29769966	     -0.14892233	      0.84097762	     21.08857506	    -58.45355331	    261.09295769	      0.00470062	     -0.02014143	     -0.47549334	      0.07875428	     17.36286406	     -6.16339866	      0.04327003	      0.07657209	     -0.02298075	     -0.00962024	     21.66862807	     19.50299613	     -0.00000000	     -0.00000000	      0.00000000	     -0.00000000	      0.05000000	      0.10000000	      0.05000000	      0.10000000	      0.05000000	      0.10000000	      0.05000000	      0.10000000	      0.05000000	      0.10000000	      0.05000000	      0.10000000
      0.16878811	   -126.04168370	   -480.13863232	    142.30356888	    537.37063069	      0.00000000	      0.00000000	      0.00000000	     -0.00000000	      0.00000000	     -0.00000000	     -0.10000000	      0.00000000	     -0.05000000	      0.00000000	     -0.00085074	      0.00000000	     49.13626962	   -208.72628883	      4.29371617	     -0.34684225	      1.16780939	     20.30142998	    -54.49028628	    240.72377050	      0.00434844	     -0.02404499	     -0.47432024	      0.06984320	     17.25172074	     -7.88033047	      0.04441634	      0.06864226	     -0.02312806	     -0.00904220	     22.02088576	     24.96107686	     -0.00000000	      0.00000000	      0.00000000	      0.00000000	      0.05000000	      0.10000000	      0.05000000	      0.10000000	      0.05000000	      0.10000000	      0.05000000	      0.10000000	      0.05000000	      0.10000000	      0.05000000	      0.10000000
      0.18454018	   -133.60486048	   -480.13863232	    150.66362829	    522.75054637	      0.00000000	     -0.00000000	      0.00000000	      0.00000000	      0.00000000	     -0.00000000	     -0.10000000	     -0.00000000	     -0.05000000	      0.00000000	     -0.00085074	      0.00000000	     45.94059611	   -195.75343172	      4.28717164	     -0.46832736	      1.47587178	     18.61052407	    -50.92310339	    210.12898596	      0.00396096	     -0.02454223	     -0.47330540	      0.05855715	     17.11830359	     -8.88283654	      0.04542012	      0.05833144	     -0.02326375	     -0.00810415	     22.44296826	     28.08891526	     -0.00000000	      0.00000000	      0.00000000	     -0.00000000	      0.05000000	      0.10000000	      0.05000000	      0.10000000	      0.05000000	      0.10000000	      0.05000000	      0.10000000	      0.05000000	      0.10000000	      0.05000000	      0.10000000
      0.20029225	   -141.16803727	   -480.13863232	    158.71803008	    497.74642013	      0.00000000	     -0.00000000	      0.00000000	      0.00000000	      0.00000000	      0.00000000	     -0.10000000	      0.00000000	     -0.05000000	      0.00000000	     -0.00085074	      0.00000000	     43.01659788	   -173.74606857	      4.27956755	     -0.47451624	      1.74571086	     15.31159600	    -47.94891603	    164.55146655	      0.00359588	     -0.02111451	     -0.47249181	      0.04414953	     16.97954572	     -8.42177722	      0.04623617	      0.04461496	     -0.02338003	     -0.00652711	     22.88250529	     26.75318711	     -0.00000000	      0.00000000	     -0.00000000	      0.00000000	      0.05000000	      0.10000000	      0.05000000	      0.10000000	      0.05000000	      0.10000000	      0.05000000	      0.10000000	      0.05000000	      0.10000000	      0.05000000	      0.10000000
      0.20922553	   -145.45724869	   -480.13863232	    163.07624399	    477.11500653	      0.00000000	     -0.00000000	      0.00000000	      0.00000000	      0.00000000	      0.00000000	     -0.10000000	     -0.00000000	     -0.05000000	     -0.00000000	     -0.00085074	     -0.00000000	     41.53995272	   -156.19103112	      4.27556718	     -0.41270153	      1.87016897	     12.41301949	    -46.62768751	    130.13330738	      0.00342341	     -0.01726617	     -0.47214051	      0.03428475	     16.90914645	     -7.21146629	      0.04659247	      0.03490270	     -0.02343280	     -0.00523528	     23.10665649	     23.02046702	     -0.00000000	      0.00000000	     -0.00000000	     -0.00000000	      0.05000000	      0.10000000	      0.05000000	      0.10000000	      0.05000000	      0.10000000	      0.05000000	      0.10000000	      0.05000000	      0.10000000	      0.05000000	      0.10000000
